<svg aria-hidden="true" style="position: absolute; width: 0; height: 0; overflow: hidden;" version="1.1" xmlns="http://www.w3.org/2000/svg" xmlns:xlink="http://www.w3.org/1999/xlink">
<defs>
<symbol id="star" viewBox="0 0 32 32">
<path d="M15.885 31.722c0-8.695 7.228-15.745 15.925-15.745v0c-8.693 0-15.925-7.052-15.925-15.745v0c0 8.693-7.19 15.747-15.885 15.747 8.695 0 15.885 7.048 15.885 15.743z"></path>
</symbol>
<symbol id="cross" viewBox="0 0 32 32">
<path d="M23.229 15.974l7.251-7.245c2.001-1.997 2.001-5.248 0-7.245-2.003-2.010-5.249-2.010-7.251 0l-7.25 7.245-7.25-7.245c-2.001-2.010-5.247-2.010-7.25 0-2.001 1.997-2.001 5.248 0 7.245l7.25 7.245-7.25 7.258c-2.001 1.997-2.001 5.248 0 7.245 2.003 2.010 5.249 2.010 7.25 0l7.25-7.245 7.25 7.245c2.002 2.010 5.248 2.010 7.251 0 2.001-1.997 2.001-5.248 0-7.245l-7.251-7.258z"></path>
</symbol>
<symbol id="menu" viewBox="0 0 32 32">
<path d="M0 5.76v1.28h32v-1.28zM0 15.36v1.28h32v-1.28zM0 24.96v1.28h32v-1.28z"></path>
</symbol>
<symbol id="search" viewBox="0 0 32 32">
<path d="M13.44 1.92c-6.003 0-10.88 4.878-10.88 10.88s4.878 10.88 10.88 10.88c2.375 0 4.57-0.765 6.36-2.060l8.42 8.4 1.8-1.8-8.32-8.34c1.635-1.905 2.62-4.378 2.62-7.080 0-6.003-4.878-10.88-10.88-10.88zM13.44 3.2c5.31 0 9.6 4.29 9.6 9.6s-4.29 9.6-9.6 9.6c-5.31 0-9.6-4.29-9.6-9.6s4.29-9.6 9.6-9.6z"></path>
</symbol>
<symbol id="plus" viewBox="0 0 32 32">
<path d="M28 12h-8v-8c0-2.21-1.791-4-4-4s-4 1.79-4 4v8h-8c-2.209 0-4 1.79-4 4s1.791 4 4 4h8v8c0 2.21 1.791 4 4 4s4-1.79 4-4v-8h8c2.209 0 4-1.79 4-4s-1.791-4-4-4z"></path>
</symbol>
<symbol id="left" viewBox="0 0 32 32">
<path d="M6.728 13.965l12.8-8c1.599-0.999 3.672 0.15 3.672 2.035v16c0 1.885-2.073 3.034-3.672 2.035l-12.8-8c-1.504-0.94-1.504-3.13 0-4.070z"></path>
</symbol>
</symbol>
</defs>
</svg>
